<svg version="1.1" id="Layer_1" xmlns="http://www.w3.org/2000/svg" xmlns:xlink="http://www.w3.org/1999/xlink" x="0px" y="0px"
	 width="100%" viewBox="0 0 500 500" enable-background="new 0 0 500 500" xml:space="preserve" style="clip-path: inset(0 0 0 0 round 50%);">
<path fill="#DEE5F2" opacity="1.000000" stroke="none" 
	d="
M321.000000,501.000000 
	C214.000031,501.000000 107.500053,501.000000 1.000057,501.000000 
	C1.000038,334.333405 1.000038,167.666794 1.000019,1.000147 
	C167.666565,1.000098 334.333130,1.000098 500.999756,1.000049 
	C500.999847,167.666519 500.999847,334.333038 500.999939,500.999786 
	C441.166656,501.000000 381.333344,501.000000 321.000000,501.000000 
M387.036560,354.606445 
	C394.419189,353.402161 401.886536,352.571167 409.167511,350.918854 
	C426.370361,347.014862 442.204346,340.396332 453.438599,325.909180 
	C454.989716,323.908905 455.641052,321.210907 456.708954,318.835907 
	C456.275177,318.537964 455.841400,318.240021 455.407623,317.942078 
	C452.062164,319.266632 448.802216,320.893616 445.357666,321.867828 
	C418.009949,329.602692 390.194153,330.575317 362.268890,326.329224 
	C346.142517,323.877167 342.316162,318.792786 342.668793,302.480255 
	C342.924103,290.667633 343.659943,278.850708 344.631714,267.072815 
	C345.430756,257.388306 345.708252,257.692902 355.619995,258.255493 
	C372.289459,259.201691 388.972351,258.921753 405.235992,254.691925 
	C418.624908,251.209747 431.141144,245.826523 439.615448,234.030609 
	C440.838654,232.327957 441.462738,230.194855 442.783356,227.361282 
	C434.159729,228.431335 426.944092,229.972748 419.703461,230.101028 
	C399.897003,230.451965 380.078857,230.332657 360.267548,230.153824 
	C347.753754,230.040863 347.866394,229.844238 347.993500,217.227890 
	C348.169525,199.758453 348.180634,182.287140 348.209137,164.816559 
	C348.214813,161.336700 349.474365,159.766296 353.258270,159.833572 
	C364.586548,160.034958 375.956329,160.471359 387.240723,159.743301 
	C395.970612,159.180054 404.771271,157.648178 413.219269,155.360718 
	C421.656830,153.076065 429.101837,148.417984 434.187469,140.902573 
	C435.017273,139.676300 435.334503,137.890778 435.256744,136.396622 
	C435.234406,135.967773 432.996094,135.344116 431.776520,135.350235 
	C428.956573,135.364319 426.131714,135.955429 423.320343,135.880554 
	C402.014801,135.313080 380.714020,134.546219 359.406464,134.088516 
	C355.493835,134.004471 351.568787,135.250717 347.626312,135.474167 
	C345.736542,135.581284 343.212494,135.349335 341.988861,134.196030 
	C339.050995,131.427002 336.047089,130.717041 332.422241,132.076736 
	C324.954865,134.877762 317.344147,137.370331 310.094421,140.656235 
	C303.453827,143.666077 297.163849,147.470871 290.816010,151.094696 
	C288.366547,152.493042 287.564484,154.087128 289.654938,157.099014 
	C292.066254,160.573166 293.694580,164.731506 295.001862,168.804886 
	C298.995422,181.248840 297.959381,194.162109 298.215424,206.971024 
	C298.476898,220.050781 297.257202,232.618637 288.834625,243.403931 
	C288.632172,243.663162 288.521667,243.992096 288.346375,244.274963 
	C286.763367,246.829575 287.495697,248.595184 289.555359,250.783997 
	C291.545044,252.898422 293.178040,255.792358 293.820374,258.605804 
	C294.461975,261.416077 293.642242,264.549591 293.530060,267.543945 
	C292.669830,290.505951 291.610657,313.464355 291.164856,336.434601 
	C291.079163,340.850006 293.006409,345.486572 294.772125,349.699615 
	C296.255493,353.238922 299.160248,354.563934 303.411102,352.998596 
	C306.721313,351.779663 310.715179,350.786224 314.032410,351.478668 
	C337.920135,356.464844 361.971313,356.565002 387.036560,354.606445 
M230.613281,163.140518 
	C244.290375,161.260788 256.591003,156.106689 267.329132,147.422119 
	C270.868286,144.559784 274.106232,141.324432 275.015259,135.920456 
	C273.165680,136.065857 272.049561,136.125763 270.939819,136.245255 
	C261.708344,137.239166 252.421280,139.448975 243.258209,139.017075 
	C217.009155,137.779831 190.810577,135.471954 164.592041,133.586594 
	C140.650528,131.864990 116.983009,132.692825 94.129295,141.136749 
	C76.450851,147.668533 61.671368,157.990524 51.471703,174.133133 
	C49.960232,176.525269 49.296829,179.453262 48.241070,182.133331 
	C48.828629,182.488861 49.416183,182.844391 50.003742,183.199921 
	C51.768303,181.850708 53.550449,180.523804 55.294720,179.148849 
	C73.998413,164.405334 95.006577,157.053894 118.973991,159.629715 
	C128.091354,160.609573 130.889893,163.213120 130.819748,172.395264 
	C130.669785,192.027191 130.181992,211.672470 129.169434,231.278046 
	C127.735382,259.044891 125.432190,286.767456 124.060799,314.536621 
	C123.521729,325.452118 123.777321,336.522156 124.986420,347.375244 
	C126.121460,357.563690 131.562103,360.791229 141.592300,358.103210 
	C149.432709,356.001984 157.139938,353.193146 164.619522,350.022186 
	C170.699188,347.444763 176.422501,343.983124 182.159454,340.664032 
	C184.252899,339.452911 185.167755,337.335876 182.849945,335.327637 
	C178.289078,331.376007 176.874054,326.078583 177.016617,320.476685 
	C177.410355,305.005127 177.958969,289.532410 178.779984,274.077881 
	C180.582184,240.152832 182.586823,206.238510 184.516373,172.320251 
	C184.997498,163.862640 185.011551,163.940506 193.307724,163.849869 
	C205.449402,163.717209 217.589706,163.460907 230.613281,163.140518 
z"/>
<path fill="#3880CC" opacity="1.000000" stroke="none" 
	d="
M386.586243,354.703674 
	C361.971313,356.565002 337.920135,356.464844 314.032410,351.478668 
	C310.715179,350.786224 306.721313,351.779663 303.411102,352.998596 
	C299.160248,354.563934 296.255493,353.238922 294.772125,349.699615 
	C293.006409,345.486572 291.079163,340.850006 291.164856,336.434601 
	C291.610657,313.464355 292.669830,290.505951 293.530060,267.543945 
	C293.642242,264.549591 294.461975,261.416077 293.820374,258.605804 
	C293.178040,255.792358 291.545044,252.898422 289.555359,250.783997 
	C287.495697,248.595184 286.763367,246.829575 288.346375,244.274963 
	C288.521667,243.992096 288.632172,243.663162 288.834625,243.403931 
	C297.257202,232.618637 298.476898,220.050781 298.215424,206.971024 
	C297.959381,194.162109 298.995422,181.248840 295.001862,168.804886 
	C293.694580,164.731506 292.066254,160.573166 289.654938,157.099014 
	C287.564484,154.087128 288.366547,152.493042 290.816010,151.094696 
	C297.163849,147.470871 303.453827,143.666077 310.094421,140.656235 
	C317.344147,137.370331 324.954865,134.877762 332.422241,132.076736 
	C336.047089,130.717041 339.050995,131.427002 341.988861,134.196030 
	C343.212494,135.349335 345.736542,135.581284 347.626312,135.474167 
	C351.568787,135.250717 355.493835,134.004471 359.406464,134.088516 
	C380.714020,134.546219 402.014801,135.313080 423.320343,135.880554 
	C426.131714,135.955429 428.956573,135.364319 431.776520,135.350235 
	C432.996094,135.344116 435.234406,135.967773 435.256744,136.396622 
	C435.334503,137.890778 435.017273,139.676300 434.187469,140.902573 
	C429.101837,148.417984 421.656830,153.076065 413.219269,155.360718 
	C404.771271,157.648178 395.970612,159.180054 387.240723,159.743301 
	C375.956329,160.471359 364.586548,160.034958 353.258270,159.833572 
	C349.474365,159.766296 348.214813,161.336700 348.209137,164.816559 
	C348.180634,182.287140 348.169525,199.758453 347.993500,217.227890 
	C347.866394,229.844238 347.753754,230.040863 360.267548,230.153824 
	C380.078857,230.332657 399.897003,230.451965 419.703461,230.101028 
	C426.944092,229.972748 434.159729,228.431335 442.783356,227.361282 
	C441.462738,230.194855 440.838654,232.327957 439.615448,234.030609 
	C431.141144,245.826523 418.624908,251.209747 405.235992,254.691925 
	C388.972351,258.921753 372.289459,259.201691 355.619995,258.255493 
	C345.708252,257.692902 345.430756,257.388306 344.631714,267.072815 
	C343.659943,278.850708 342.924103,290.667633 342.668793,302.480255 
	C342.316162,318.792786 346.142517,323.877167 362.268890,326.329224 
	C390.194153,330.575317 418.009949,329.602692 445.357666,321.867828 
	C448.802216,320.893616 452.062164,319.266632 455.407623,317.942078 
	C455.841400,318.240021 456.275177,318.537964 456.708954,318.835907 
	C455.641052,321.210907 454.989716,323.908905 453.438599,325.909180 
	C442.204346,340.396332 426.370361,347.014862 409.167511,350.918854 
	C401.886536,352.571167 394.419189,353.402161 386.586243,354.703674 
z"/>
<path fill="#3880CC" opacity="1.000000" stroke="none" 
	d="
M230.171936,163.198898 
	C217.589706,163.460907 205.449402,163.717209 193.307724,163.849869 
	C185.011551,163.940506 184.997498,163.862640 184.516373,172.320251 
	C182.586823,206.238510 180.582184,240.152832 178.779984,274.077881 
	C177.958969,289.532410 177.410355,305.005127 177.016617,320.476685 
	C176.874054,326.078583 178.289078,331.376007 182.849945,335.327637 
	C185.167755,337.335876 184.252899,339.452911 182.159454,340.664032 
	C176.422501,343.983124 170.699188,347.444763 164.619522,350.022186 
	C157.139938,353.193146 149.432709,356.001984 141.592300,358.103210 
	C131.562103,360.791229 126.121460,357.563690 124.986420,347.375244 
	C123.777321,336.522156 123.521729,325.452118 124.060799,314.536621 
	C125.432190,286.767456 127.735382,259.044891 129.169434,231.278046 
	C130.181992,211.672470 130.669785,192.027191 130.819748,172.395264 
	C130.889893,163.213120 128.091354,160.609573 118.973991,159.629715 
	C95.006577,157.053894 73.998413,164.405334 55.294720,179.148849 
	C53.550449,180.523804 51.768303,181.850708 50.003742,183.199921 
	C49.416183,182.844391 48.828629,182.488861 48.241070,182.133331 
	C49.296829,179.453262 49.960232,176.525269 51.471703,174.133133 
	C61.671368,157.990524 76.450851,147.668533 94.129295,141.136749 
	C116.983009,132.692825 140.650528,131.864990 164.592041,133.586594 
	C190.810577,135.471954 217.009155,137.779831 243.258209,139.017075 
	C252.421280,139.448975 261.708344,137.239166 270.939819,136.245255 
	C272.049561,136.125763 273.165680,136.065857 275.015259,135.920456 
	C274.106232,141.324432 270.868286,144.559784 267.329132,147.422119 
	C256.591003,156.106689 244.290375,161.260788 230.171936,163.198898 
z"/>
</svg>